/* XPM */
static char *_a30fd395afe4655bf0563e0f54fccaf[] = {
/* columns rows colors chars-per-pixel */
"32 32 2 1 ",
"  c #E65F55",
". c None",
/* pixels */
"................................",
"................................",
"................................",
"...............  ...............",
"..............    ..............",
"..............    ..............",
"...............  ...............",
"................................",
".........  ..........  .........",
".........   .      .   .........",
"..........            ..........",
"......  ...   ....   ...  ......",
"......   ..............   ......",
".......   ....    ....   .......",
"........  ...      ...  ........",
".......   ..   ..   ..  ........",
"..  ...  ...  ....  ...  ..   ..",
".    ..  ..  .....   ..  ..    .",
".    ..  ..   ....   ..  ..    .",
"..  ...  ...  ....  ...  ...  ..",
"........  ..        ..  ........",
"........  ...      ...  ........",
".......   ............   .......",
"......   .......... ...   ......",
"......  ...          ...  ......",
"..........            ..........",
".........  ..........  .........",
".........  ..........  .........",
"................................",
"................................",
"................................",
"................................"
};
