/* XPM */
static char *_786e000d463406cf7c3f977e68555d9[] = {
/* columns rows colors chars-per-pixel */
"128 128 2 1 ",
"  c #E65F55",
". c None",
/* pixels */
"................................................................................................................................",
"................................................................................................................................",
"................................................................................................................................",
"................................................................................................................................",
"................................................................................................................................",
"................................................................................................................................",
"................................................................................................................................",
".............................................................       ............................................................",
"...........................................................           ..........................................................",
"..........................................................             .........................................................",
".........................................................               ........................................................",
".........................................................               ........................................................",
"........................................................                 .......................................................",
"........................................................                 .......................................................",
"........................................................                 .......................................................",
"........................................................                 .......................................................",
"........................................................                 .......................................................",
"........................................................                ........................................................",
".........................................................               ........................................................",
".........................................................              .........................................................",
"..........................................................             .........................................................",
"...........................................................          ...........................................................",
".............................................................       ............................................................",
"................................................................................................................................",
"................................................................................................................................",
"................................................................................................................................",
".......................................  ...............................................   .....................................",
"......................................    .............................................     ....................................",
".....................................      ...........................................       ...................................",
"....................................        .........................................         ..................................",
"..................................           .......................................           .................................",
"..................................            .....................................            .................................",
"..................................             ...........             ...........             .................................",
"...................................             ......                     ......             ..................................",
"....................................             ..                          ...            ....................................",
".....................................                                                      .....................................",
"......................................                                                    ......................................",
".......................................                                                  .......................................",
"..........................  ............                                                ............. ..........................",
".........................    .............                                             .............   .........................",
"........................      .............                  ......                   .............     ........................",
".......................        .............            .................            .............       .......................",
"......................          .............        ......................         .............         ......................",
".....................            .............     ..........................      .............           .....................",
"......................            .............   .............................   .............            .....................",
".......................            ............................................. .............            ......................",
"........................            .........................................................            .......................",
".........................            .......................................................            ........................",
"..........................            .....................................................            .........................",
"...........................            ........................   ........................            ..........................",
"...........................             ..................             ..................            ...........................",
"............................             ..............                  ...............            ............................",
".............................            .............                     ............            .............................",
"..............................          ............                        ............          ..............................",
"..............................          ...........                          ............         ..............................",
".............................          ............                           ...........          .............................",
".............................          ...........                             ...........         .............................",
".............................         ...........                               ..........          ............................",
"............................          ..........              .....             ...........         ............................",
"............................         ...........           ...........           ..........         ............................",
"............................         ..........           .............          ..........         .................   ........",
"......        .............          ..........         ................          ..........         .............        ......",
".....           ...........          .........         ..................         ..........         ...........            ....",
"....             ..........         ..........         ...................         .........         ...........             ...",
"...              ..........         ..........        ....................         .........         ..........              ...",
"...               .........         ..........        .....................        .........         .........                ..",
"..                .........         .........         .....................        ..........        .........                ..",
"..                 ........         .........        ......................        ..........        .........                ..",
"..                 ........         .........        ......................        ..........        .........                ..",
"..                 ........         .........        ......................        ..........        .........                ..",
"..                .........         .........        ......................        ..........        .........                ..",
"..                .........         .........         .....................        .........         .........                ..",
"...               .........         ..........        ....................         .........         ..........              ...",
"...              ..........         ..........        ....................         .........         ..........              ...",
"....            ...........         ..........         ..................         ..........         ...........            ....",
"......         ............          .........          .................         ..........         .............        ......",
"........     ...............         ..........          ...............         ..........         ................    ........",
"............................         ..........           ............           ..........         ............................",
"............................          ..........            ........            ...........         ............................",
"............................          ...........                               ..........          ............................",
".............................         ...........                              ...........         .............................",
".............................          ...........                            ...........          .............................",
"..............................         ............                          ............         ..............................",
"..............................          ............                        ............          ..............................",
".............................            ............                      ............            .............................",
"............................             ..............                  ..............             ............................",
"...........................             .................              .................             ...........................",
"..........................             ......................      ......................            ...........................",
"..........................            .....................................................           ..........................",
".........................            .......................................................           .........................",
".......................             .........................................................           ........................",
"......................             ...........................................................           .......................",
".....................             .............  ..............................  ..............           ......................",
".....................           ..............     ..........................      .............           .....................",
"......................         .............        .......................         .............         ......................",
".......................       .............            ..................            .............       .......................",
"........................     .............                 ..........                 .............     ........................",
".........................   .............                                              .............   .........................",
".......................... .............                                                ............. ..........................",
".......................................                                                  .......................................",
"......................................                                                    ......................................",
".....................................                                                      .....................................",
"....................................             ..                           ..            ....................................",
"...................................             .....                      ......            ...................................",
"..................................             ..........               ..........            ..................................",
".................................             .....................................            .................................",
"..................................           .......................................          ..................................",
"...................................         .........................................        ...................................",
"....................................       ...........................................      ....................................",
".....................................     .............................................    .....................................",
"......................................  ................................................  ......................................",
"................................................................................................................................",
"................................................................................................................................",
"................................................................................................................................",
"................................................................................................................................",
"................................................................................................................................",
"................................................................................................................................",
"................................................................................................................................",
"................................................................................................................................",
"................................................................................................................................",
"................................................................................................................................",
"................................................................................................................................",
"................................................................................................................................",
"................................................................................................................................",
"................................................................................................................................",
"................................................................................................................................",
"................................................................................................................................",
"................................................................................................................................"
};
