/* XPM */
static char *_fdc33947bc047e2a9de6a1106afec96[] = {
/* columns rows colors chars-per-pixel */
"64 64 2 1 ",
"  c #E65F55",
". c None",
/* pixels */
"................................................................",
"................................................................",
"................................................................",
"................................................................",
"..............................    ..............................",
".............................      .............................",
"............................        ............................",
"............................        ............................",
"............................        ............................",
"............................        ............................",
".............................       ............................",
"..............................     .............................",
"................................................................",
"................................................................",
"..................   ....................... ...................",
".................     .....................   ..................",
".................      ...................     .................",
"..................      ..           ....      .................",
"...................                           ..................",
"............. ......                         ...................",
"............   ......                       ...... .............",
"...........     ......     .........      .......   ............",
"...........      ......  .............   .......     ...........",
"...........      ..............................      ...........",
"............      ............................      ............",
".............      ............  ............      .............",
"..............      .......         ........      ..............",
"...............     ......            ......     ...............",
"..............     ......              .....     ...............",
"..............     .....               ......    ...............",
"..............    .....      .....      .....    ...............",
"..     .......    .....     .......      ....     ..............",
".       .....     ....     .........     .....    ......     ...",
".        ....     ....     ..........    .....    .....       ..",
".        ....     ....    ...........    .....    ....        ..",
".        ....     ....    ...........    .....    ....         .",
".        ....     ....    ...........    .....    ....        ..",
"..      .....     ....     ..........    .....    .....       ..",
"...   .......     .....    .........     ....     .....       ..",
"..............    .....     .......     .....     .......   ....",
"..............    ......      ...       .....    ...............",
"..............     .....               .....     ...............",
"..............      .....             ......     ...............",
".............       .......          ......      ...............",
"............       ..........      .........      ..............",
"...........       ..........................      ..............",
"..........       ............................      .............",
"..........      ......  ............... ......      ............",
"...........    ......     ...........    ......      ...........",
"............  ......                      ......    ............",
"...................                        ......  .............",
"..................                          ....................",
".................      ..                    ...................",
"................      ......       .....      ..................",
".................    ....................     ..................",
".................   ......................    ..................",
"...........................................  ...................",
"................................................................",
"................................................................",
"................................................................",
"................................................................",
"................................................................",
"................................................................",
"................................................................"
};
